<svg width="16" height="16" viewBox="0 0 16 16" fill="none" xmlns="http://www.w3.org/2000/svg">
<path d="M10.6665 7.33337C11.7732 7.33337 12.6598 6.44004 12.6598 5.33337C12.6598 4.22671 11.7732 3.33337 10.6665 3.33337C9.55984 3.33337 8.6665 4.22671 8.6665 5.33337C8.6665 6.44004 9.55984 7.33337 10.6665 7.33337ZM5.33317 7.33337C6.43984 7.33337 7.3265 6.44004 7.3265 5.33337C7.3265 4.22671 6.43984 3.33337 5.33317 3.33337C4.2265 3.33337 3.33317 4.22671 3.33317 5.33337C3.33317 6.44004 4.2265 7.33337 5.33317 7.33337ZM5.33317 8.66671C3.77984 8.66671 0.666504 9.44671 0.666504 11V12C0.666504 12.3667 0.966504 12.6667 1.33317 12.6667H9.33317C9.69984 12.6667 9.99984 12.3667 9.99984 12V11C9.99984 9.44671 6.8865 8.66671 5.33317 8.66671ZM10.6665 8.66671C10.4732 8.66671 10.2532 8.68004 10.0198 8.70004C10.0332 8.70671 10.0398 8.72004 10.0465 8.72671C10.8065 9.28004 11.3332 10.02 11.3332 11V12C11.3332 12.2334 11.2865 12.46 11.2132 12.6667H14.6665C15.0332 12.6667 15.3332 12.3667 15.3332 12V11C15.3332 9.44671 12.2198 8.66671 10.6665 8.66671Z" fill="#828282"/>
</svg>
