<svg id="Layer_1" data-name="Layer 1" xmlns="http://www.w3.org/2000/svg" viewBox="0 0 24 24" style="fill:#000;" height="100%" width="100%">
  <path id="close" fill="#8d8d8d" d="M12,0a11.64,11.64,0,0,1,6,1.62A12.1,12.1,0,0,1,22.38,6,11.64,11.64,0,0,1,24,12a11.64,11.64,0,0,1-1.62,6A12.1,12.1,0,0,1,18,22.38,11.64,11.64,0,0,1,12,24a11.64,11.64,0,0,1-6-1.62A12.1,12.1,0,0,1,1.62,18,11.64,11.64,0,0,1,0,12,11.64,11.64,0,0,1,1.62,6,12.1,12.1,0,0,1,6,1.62,11.64,11.64,0,0,1,12,0Zm0,21.68a9.43,9.43,0,0,0,4.84-1.31,9.79,9.79,0,0,0,3.53-3.53,9.6,9.6,0,0,0,0-9.68,9.79,9.79,0,0,0-3.53-3.53,9.6,9.6,0,0,0-9.68,0A9.79,9.79,0,0,0,3.63,7.16a9.6,9.6,0,0,0,0,9.68,9.79,9.79,0,0,0,3.53,3.53A9.43,9.43,0,0,0,12,21.68ZM13.94,12l3,3a.74.74,0,0,1,.14.44.52.52,0,0,1-.14.38l-1.12,1.12a.52.52,0,0,1-.38.14.74.74,0,0,1-.44-.14l-3-3-3,3a.74.74,0,0,1-.44.14.52.52,0,0,1-.38-.14L7.06,15.82a.52.52,0,0,1-.14-.38A.74.74,0,0,1,7.06,15l3-3-3-3a.74.74,0,0,1-.14-.44.52.52,0,0,1,.14-.38L8.18,7.06a.52.52,0,0,1,.38-.14A.74.74,0,0,1,9,7.06l3,3,3-3a.74.74,0,0,1,.44-.14.52.52,0,0,1,.38.14l1.12,1.12a.52.52,0,0,1,.14.38.74.74,0,0,1-.14.44Z" fill-rule="evenodd"/>
</svg>